# xmcd CD database file
#
# Track frame offsets:
#	150
#	17482
#	36295
#
# Disc length: 713 seconds
#
# Revision: 2
# Processed by: cddbd v1.5.1PL0 Copyright (c) Steve Scherf et al.
# Submitted via: CDex 1.51
#
DISCID=1902c703
DTITLE=木内美歩 - 片想いを殺したい
DYEAR=1993
DGENRE=Pop
TTITLE0=片想いを殺したい
TTITLE1=月下少女
TTITLE2=片想いを殺したい (オリジナル・カラオケ)
EXTD=YEAR: 1993
EXTT0=
EXTT1=
EXTT2=
PLAYORDER=
